<?xml version="1.0" standalone="no"?>
<!DOCTYPE svg PUBLIC "-//W3C//DTD SVG 20010904//EN"
 "http://www.w3.org/TR/2001/REC-SVG-20010904/DTD/svg10.dtd">
<svg version="1.0" xmlns="http://www.w3.org/2000/svg"
 width="304.000000pt" height="304.000000pt" viewBox="0 0 304.000000 304.000000"
 preserveAspectRatio="xMidYMid meet">
<metadata>
Created by potrace 1.14, written by Peter Selinger 2001-2017
</metadata>
<g transform="translate(0.000000,304.000000) scale(0.100000,-0.100000)"
fill="#000000" stroke="none">
<path d="M1524 2721 c-3 -3 -11 -6 -17 -7 -25 -2 -57 -17 -57 -25 0 -5 -6 -9
-13 -9 -18 0 -88 -77 -106 -115 -19 -40 -21 -51 -23 -120 -2 -96 37 -163 143
-251 25 -20 25 -22 24 -168 l-1 -147 -62 -35 c-35 -20 -70 -33 -78 -30 -24 9
-239 149 -242 158 -2 4 -9 8 -15 8 -7 1 -39 20 -71 43 l-59 42 -2 65 c-4 146
-107 253 -260 267 -54 5 -70 2 -121 -21 -98 -45 -146 -102 -169 -201 -25 -105
2 -178 100 -277 57 -58 180 -75 274 -39 62 23 61 24 284 -124 l166 -110 -1
-80 c-1 -92 4 -121 36 -191 22 -49 22 -73 -3 -94 -3 -3 -33 -41 -65 -85 -33
-44 -65 -87 -73 -95 -7 -8 -50 -64 -96 -123 l-82 -109 -40 7 c-121 22 -212 -2
-281 -73 -59 -60 -77 -106 -77 -192 -1 -83 20 -141 70 -196 110 -123 336 -114
424 16 60 89 75 156 55 245 -6 27 3 43 80 145 48 63 107 140 131 170 24 30 47
60 51 65 4 6 29 38 55 72 46 60 48 61 80 52 34 -11 171 -14 186 -5 13 9 41 -4
41 -19 0 -6 9 -20 20 -30 11 -10 20 -23 20 -30 0 -7 9 -20 20 -30 10 -9 18
-20 17 -24 -2 -6 22 -42 61 -92 13 -16 21 -29 17 -29 -3 0 0 -9 8 -21 13 -18
13 -24 -1 -52 -22 -44 -24 -53 -24 -128 -1 -151 111 -269 261 -274 92 -4 144
18 214 88 32 33 56 61 53 65 -3 3 -2 10 3 16 15 20 30 76 20 76 -6 0 -6 7 -1
18 19 40 -14 141 -66 200 -58 65 -123 94 -220 96 -48 1 -40 -8 -177 199 l-65
98 17 27 c10 15 20 29 23 32 3 3 7 14 8 25 2 11 7 25 12 30 4 6 10 27 14 48 4
20 12 37 19 38 7 0 21 3 32 5 11 2 31 6 45 9 14 2 27 5 30 6 3 1 10 3 15 4 6
2 12 4 15 5 8 3 36 8 79 14 34 4 49 0 92 -27 48 -30 59 -32 138 -32 98 0 139
15 198 74 137 136 99 370 -73 451 -65 30 -130 36 -195 16 -110 -31 -170 -94
-197 -204 -14 -59 -21 -72 -37 -73 -11 0 -27 -2 -35 -4 -20 -5 -72 -16 -87
-19 -7 -1 -15 -4 -18 -7 -16 -16 -62 6 -89 43 -31 43 -92 92 -143 113 -17 7
-34 21 -37 32 -9 28 -4 276 6 296 5 9 13 17 19 17 16 0 79 62 105 102 13 20
29 65 35 101 10 55 9 71 -6 120 -27 88 -108 169 -190 192 -34 10 -133 14 -141
6z m66 -1159 l5 -107 80 -3 c109 -3 115 -6 79 -43 -28 -29 -29 -30 -127 -27
l-99 3 1 93 c0 50 0 98 1 105 0 7 12 25 26 40 14 16 24 30 21 33 -2 2 -45 -39
-96 -93 -50 -53 -91 -90 -91 -82 0 8 25 41 55 73 30 31 55 59 55 60 0 2 15 19
33 38 20 23 36 32 42 26 6 -5 12 -57 15 -116z m-75 -77 c1 -41 -1 -79 -4 -84
-7 -11 -113 39 -109 51 6 16 102 118 106 113 3 -3 6 -39 7 -80z"/>
</g>
</svg>
